<?xml version="1.0" encoding="utf-8"?>
<!DOCTYPE svg PUBLIC "-//W3C//DTD SVG 1.1//EN" "http://www.w3.org/Graphics/SVG/1.1/DTD/svg11.dtd">
<svg xmlns="http://www.w3.org/2000/svg" xmlns:xlink="http://www.w3.org/1999/xlink" version="1.1" baseProfile="full" width="39.9277" height="89.7083" viewBox="0 0 39.93 89.71" enable-background="new 0 0 39.93 89.71" xml:space="preserve">
	<g>
		<path fill="#FFFFFF" fill-opacity="1" stroke-width="0.319997" stroke-linejoin="round" stroke="#000000" stroke-opacity="1" d="M 15.2791,10.9421C 15.2792,10.9424 8.18631,-3.37451 2.53857,0.565918C -3.10913,4.50635 4.90295,15.6706 4.90295,15.6706C 4.90308,15.6708 10.3536,24.8101 10.8791,30.2499C 11.4044,35.6895 16.1325,53.1912 17.3586,55.2055C 18.5844,57.2195 33.6453,58.445 32.5946,51.7029C 31.544,44.9612 26.4651,32.2637 23.8383,25.6967C 21.2113,19.1295 15.3446,10.8985 15.2791,10.9421 Z "/>
		<path fill="#FFFFFF" fill-opacity="1" stroke-width="0.319997" stroke-linejoin="round" stroke="#000000" stroke-opacity="1" d="M 14.1166,73.7975C 12.5754,73.7975 11.3257,72.6946 11.3257,71.3347L 11.3257,58.6094C 11.3257,58.1246 11.4845,57.6725 11.7588,57.2913C 12.8901,54.1653 16.2089,51.9012 20.1269,51.9012L 29.7517,51.9012L 32.2308,52.2144C 33.4637,51.9283 34.8311,52.2117 35.7977,53.0647L 37.4353,55.5775L 38.1215,57.2327C 39.0604,58.1133 39.7784,59.8173 39.4023,60.906L 39.3108,73.5814C 39.3108,75.3879 39.9452,78.8996 37.8979,78.8996C 35.8507,78.8996 34.1913,77.4351 34.1913,75.6286L 33.8786,68.7422L 33.1925,68.8481L 32.5911,69.8083L 32.5911,85.9124C 32.5911,87.7188 30.9317,89.1833 28.8845,89.1833C 26.8374,89.1833 25.1779,87.7188 25.1779,85.9124L 25.1779,69.8083L 25.2155,69.3399L 25.1078,69.3399L 25.1078,85.1414C 25.1078,86.5017 23.8581,87.6042 22.3168,87.6042C 20.7755,87.6042 19.5258,86.5017 19.5258,85.1414L 19.5258,69.322L 19.5094,69.321L 19.5094,80.2517C 19.5094,81.3942 18.4598,82.3206 17.1649,82.3206C 15.8701,82.3206 14.8203,81.3942 14.8203,80.2517L 14.8203,73.7187C 14.5956,73.7702 14.3596,73.7975 14.1166,73.7975 Z "/>
	</g>
</svg>
