<?xml version="1.0" encoding="utf-8"?>
<!DOCTYPE svg PUBLIC "-//W3C//DTD SVG 1.1//EN" "http://www.w3.org/Graphics/SVG/1.1/DTD/svg11.dtd">
<svg xmlns="http://www.w3.org/2000/svg" xmlns:xlink="http://www.w3.org/1999/xlink" version="1.1" baseProfile="full" width="39.928" height="89.708" viewBox="0 0 39.93 89.71" enable-background="new 0 0 39.93 89.71" xml:space="preserve">
	<g>
		<path fill="#FFFFFF" fill-opacity="1" stroke-width="0.319997" stroke-linejoin="round" stroke="#000000" stroke-opacity="1" d="M 24.6489,10.9424C 24.6489,10.9426 31.7417,-3.3743 37.3894,0.566132C 43.0371,4.50656 35.025,15.6707 35.025,15.6707C 35.0249,15.671 29.5744,24.8103 29.0489,30.2501C 28.5235,35.6897 23.7954,53.1914 22.5694,55.2057C 21.3436,57.2197 6.28271,58.4452 7.33344,51.7032C 8.38397,44.9615 13.4629,32.2639 16.0897,25.6969C 18.7166,19.1297 24.5833,10.8987 24.6489,10.9424 Z "/>
		<path fill="#FFFFFF" fill-opacity="1" stroke-width="0.319997" stroke-linejoin="round" stroke="#000000" stroke-opacity="1" d="M 3.31586,73.7971C 1.77466,73.7971 0.524963,72.6944 0.524963,71.3343L 0.524963,58.6092C 0.524963,58.1243 0.683655,57.6721 0.958008,57.291C 2.08936,54.1649 5.40814,51.9009 9.32617,51.9009L 18.9509,51.9009L 21.4301,52.2141C 22.663,51.928 24.0303,52.2114 24.997,53.0643L 26.6346,55.5772L 27.3207,57.2324C 28.2597,58.113 28.9776,59.8169 28.6016,60.9057L 28.5101,73.5811C 28.5101,75.3875 29.1445,78.8993 27.0972,78.8993C 25.05,78.8993 23.3906,77.4348 23.3906,75.6283L 23.0779,68.7419L 22.3918,68.8479L 21.7903,69.808L 21.7903,85.9121C 21.7903,87.7185 20.1309,89.1831 18.0837,89.1831C 16.0366,89.1831 14.3771,87.7185 14.3771,85.9121L 14.3771,69.808L 14.4148,69.3396L 14.3071,69.3396L 14.3071,85.1411C 14.3071,86.5014 13.0574,87.604 11.5161,87.604C 9.97467,87.604 8.72504,86.5014 8.72504,85.1411L 8.72504,69.3216L 8.70868,69.3206L 8.70868,80.2514C 8.70868,81.3939 7.659,82.3203 6.36407,82.3203C 5.06934,82.3203 4.01953,81.3939 4.01953,80.2514L 4.01953,73.7183C 3.79486,73.7698 3.5589,73.7971 3.31586,73.7971 Z "/>
	</g>
</svg>
