<?xml version="1.0" encoding="utf-8"?>
<!DOCTYPE svg PUBLIC "-//W3C//DTD SVG 1.1//EN" "http://www.w3.org/Graphics/SVG/1.1/DTD/svg11.dtd">
<svg xmlns="http://www.w3.org/2000/svg" xmlns:xlink="http://www.w3.org/1999/xlink" version="1.1" baseProfile="full" width="39.9277" height="89.7083" viewBox="0 0 39.93 89.71" enable-background="new 0 0 39.93 89.71" xml:space="preserve">
	<g>
		<path fill="#FFFFFF" fill-opacity="1" stroke-width="0.319997" stroke-linejoin="round" stroke="#000000" stroke-opacity="1" d="M 15.2791,10.9422C 15.2792,10.9424 8.18628,-3.37448 2.53857,0.565948C -3.10913,4.50638 4.90295,15.6706 4.90295,15.6706C 4.90308,15.6708 10.3536,24.8101 10.879,30.2499C 11.4044,35.6895 16.1326,53.1912 17.3585,55.2055C 18.5844,57.2195 33.6453,58.445 32.5946,51.703C 31.5441,44.9613 26.4651,32.2637 23.8383,25.6967C 21.2113,19.1295 15.3446,10.8985 15.2791,10.9422 Z "/>
		<path fill="#FFFFFF" fill-opacity="1" stroke-width="0.319997" stroke-linejoin="round" stroke="#000000" stroke-opacity="1" d="M 14.1166,73.7974C 12.5754,73.7974 11.3258,72.6945 11.3258,71.3345L 11.3258,58.6093C 11.3258,58.1244 11.4845,57.6724 11.7588,57.2912C 12.89,54.1651 16.2089,51.901 20.1268,51.901L 29.7517,51.901L 32.2308,52.2142C 33.4637,51.9281 34.8312,52.2115 35.7977,53.0645L 37.4353,55.5773L 38.1215,57.2326C 39.0604,58.1131 39.7783,59.8172 39.4022,60.9059L 39.3109,73.5812C 39.3109,75.3877 39.9452,78.8994 37.8979,78.8994C 35.8507,78.8994 34.1913,77.4349 34.1913,75.6284L 33.8787,68.742L 33.1925,68.848L 32.5912,69.8082L 32.5912,85.9122C 32.5912,87.7187 30.9318,89.1832 28.8845,89.1832C 26.8374,89.1832 25.1779,87.7187 25.1779,85.9122L 25.1779,69.8082L 25.2156,69.3398L 25.1078,69.3398L 25.1078,85.1413C 25.1078,86.5016 23.858,87.6041 22.3168,87.6041C 20.7755,87.6041 19.5258,86.5016 19.5258,85.1413L 19.5258,69.3218L 19.5094,69.3208L 19.5094,80.2516C 19.5094,81.3941 18.4598,82.3205 17.1649,82.3205C 15.8701,82.3205 14.8203,81.3941 14.8203,80.2516L 14.8203,73.7185C 14.5956,73.7701 14.3596,73.7974 14.1166,73.7974 Z "/>
	</g>
</svg>
