<?xml version="1.0" encoding="utf-8"?>
<!DOCTYPE svg PUBLIC "-//W3C//DTD SVG 1.1//EN" "http://www.w3.org/Graphics/SVG/1.1/DTD/svg11.dtd">
<svg xmlns="http://www.w3.org/2000/svg" xmlns:xlink="http://www.w3.org/1999/xlink" version="1.1" baseProfile="full" width="39.928" height="89.708" viewBox="0 0 39.93 89.71" enable-background="new 0 0 39.93 89.71" xml:space="preserve">
	<g>
		<path fill="#FFFFFF" fill-opacity="1" stroke-width="0.319997" stroke-linejoin="round" stroke="#000000" stroke-opacity="1" d="M 24.6489,10.9425C 24.6488,10.9428 31.7417,-3.37411 37.3894,0.566315C 43.0371,4.50674 35.025,15.6709 35.025,15.6709C 35.0249,15.6712 29.5744,24.8105 29.0489,30.2503C 28.5235,35.6898 23.7954,53.1916 22.5694,55.2058C 21.3435,57.2199 6.28268,58.4453 7.3334,51.7033C 8.384,44.9616 13.4629,32.2641 16.0897,25.6971C 18.7166,19.1299 24.5833,10.8989 24.6489,10.9425 Z "/>
		<path fill="#FFFFFF" fill-opacity="1" stroke-width="0.319997" stroke-linejoin="round" stroke="#000000" stroke-opacity="1" d="M 3.31583,73.7973C 1.77466,73.7973 0.524994,72.6945 0.524994,71.3345L 0.524994,58.6093C 0.524994,58.1245 0.683716,57.6723 0.958008,57.2912C 2.08932,54.1651 5.40817,51.9011 9.32614,51.9011L 18.9509,51.9011L 21.4301,52.2143C 22.663,51.9282 24.0304,52.2116 24.9969,53.0645L 26.6346,55.5774L 27.3207,57.2326C 28.2596,58.1132 28.9776,59.8171 28.6015,60.9059L 28.5101,73.5813C 28.5101,75.3877 29.1444,78.8994 27.0972,78.8994C 25.05,78.8994 23.3906,77.435 23.3906,75.6284L 23.0779,68.7421L 22.3918,68.8481L 21.7904,69.8081L 21.7904,85.9123C 21.7904,87.7187 20.131,89.1833 18.0837,89.1833C 16.0367,89.1833 14.3771,87.7187 14.3771,85.9123L 14.3771,69.8081L 14.4148,69.3398L 14.307,69.3398L 14.307,85.1413C 14.307,86.5016 13.0573,87.6042 11.516,87.6042C 9.97473,87.6042 8.72501,86.5016 8.72501,85.1413L 8.72501,69.3218L 8.70871,69.3208L 8.70871,80.2516C 8.70871,81.3941 7.65906,82.3205 6.36414,82.3205C 5.06934,82.3205 4.01956,81.3941 4.01956,80.2516L 4.01956,73.7185C 3.7948,73.77 3.55887,73.7973 3.31583,73.7973 Z "/>
	</g>
</svg>
