<?xml version="1.0" encoding="utf-8"?>
<!DOCTYPE svg PUBLIC "-//W3C//DTD SVG 1.1//EN" "http://www.w3.org/Graphics/SVG/1.1/DTD/svg11.dtd">
<svg xmlns="http://www.w3.org/2000/svg" xmlns:xlink="http://www.w3.org/1999/xlink" version="1.1" baseProfile="full" width="49.8793" height="85.5177" viewBox="0 0 49.88 85.52" enable-background="new 0 0 49.88 85.52" xml:space="preserve">
	<path fill="#FFFFFF" fill-opacity="1" stroke-width="0.319997" stroke-linejoin="round" stroke="#000000" stroke-opacity="1" d="M 26.1676,84.2804L 26.1676,84.1874L 1.74017,84.1874C 1.6958,85.0144 1.62286,85.7698 1.51489,86.4446C -0.0610352,96.2951 1.27368,113.59 1.18646,117.179C 1.09912,120.769 9.54852,119.719 15.0652,119.631C 20.5817,119.543 16.3349,114.377 16.3349,114.377C 16.3349,114.377 11.1465,114.641 14.9995,108.248C 18.6126,102.254 25.3436,86.2498 26.1676,84.2804 Z "/>
	<path fill="#FFFFFF" fill-opacity="1" stroke-width="0.319997" stroke-linejoin="round" stroke="#000000" stroke-opacity="1" d="M 47.0035,116.72C 47.9232,112.385 43.6105,109.824 43.6105,109.824C 43.6105,109.824 45.7084,97.8044 47.4063,84.1874L 26.2623,84.1874L 27.7783,98.4643L 28.7466,117.902L 40.1079,118.756C 42.3409,118.887 46.0841,121.054 47.0035,116.72 Z "/>
	<g>
		<path fill="#FFFFFF" fill-opacity="1" stroke-width="0.319997" stroke-linejoin="round" stroke="#000000" stroke-opacity="1" d="M 26.168,72.5602L 25.9928,84.9341L 1.56525,84.9341C 1.89355,78.8279 0.669434,68.8215 0.525635,58.646C 0.404602,50.0769 1.04956,41.388 4.03241,34.8069L 11.563,7.00461C 11.563,7.00461 17.5176,0.174469 27.8499,0.525055C 38.182,0.875641 47.1136,36.6013 49.0399,52.0124C 49.2714,53.8643 49.3663,56.1164 49.3541,58.646C 49.3187,66.0576 48.364,75.8513 47.2313,84.9341L 26.0875,84.9341L 26.0762,84.8275L 26.168,72.5602 Z "/>
		<rect x="2.0769" y="82.2893" fill="#FFFFFF" fill-opacity="1" stroke-width="0.2" stroke-linejoin="round" width="23.3905" height="3.15234"/>
		<rect x="26.6647" y="79.9788" fill="#FFFFFF" fill-opacity="1" stroke-width="0.2" stroke-linejoin="round" width="20.0245" height="5.53955"/>
	</g>
</svg>
