<?xml version="1.0" encoding="utf-8"?>
<!DOCTYPE svg PUBLIC "-//W3C//DTD SVG 1.1//EN" "http://www.w3.org/Graphics/SVG/1.1/DTD/svg11.dtd">
<svg xmlns="http://www.w3.org/2000/svg" xmlns:xlink="http://www.w3.org/1999/xlink" version="1.1" baseProfile="full" width="57.5633" height="50.6834" viewBox="0 0 57.56 50.68" enable-background="new 0 0 57.56 50.68" xml:space="preserve">
	<g>
		<path fill="#3C1906" fill-opacity="1" stroke-width="0.2" stroke-linejoin="round" d="M 50.6776,18.4605C 52.3883,18.6037 53.4186,22.9779 52.9788,28.2309C 52.5389,33.4838 50.7956,37.6259 49.0848,37.4826C 47.374,37.3394 46.3437,32.9651 46.7836,27.7122C 47.2234,22.4591 48.9668,18.3173 50.6776,18.4605 Z "/>
		<path fill="#3C1906" fill-opacity="1" stroke-width="0.2" stroke-linejoin="round" d="M 13.1573,19.0303C 14.8681,19.1736 15.8984,23.5478 15.4585,28.8008C 15.0187,34.0537 13.2753,38.1957 11.5645,38.0525C 9.85376,37.9092 8.82343,33.5349 9.26331,28.282C 9.70316,23.029 11.4465,18.8871 13.1573,19.0303 Z "/>
		<path fill="#3C1906" fill-opacity="1" stroke-width="0.2" stroke-linejoin="round" d="M 19.7545,47.367C 19.7543,47.3672 24.2861,51.0116 29.6711,50.6835C 35.0558,50.3556 38.1098,47.5971 38.1098,47.5971C 38.1098,47.5971 38.5368,46.3492 37.5515,47.1046C 36.5664,47.8598 33.4799,50.2236 29.3096,49.7314C 25.1395,49.2389 23.6844,48.5041 20.2797,46.7762C 19.1798,46.218 19.7545,47.3836 19.7545,47.367 Z "/>
		<path fill="#3C1906" fill-opacity="1" stroke-width="0.2" stroke-linejoin="round" d="M 40.1841,20.9778C 40.184,20.9781 47.9994,9.46329 50.8012,11.3023C 53.603,13.1413 56.3176,16.425 56.3176,16.425C 56.3176,16.425 54.6538,10.0763 50.188,7.84366C 45.7224,5.61075 40.1183,21.0657 40.1841,20.9778 Z "/>
		<path fill="#3C1906" fill-opacity="1" stroke-width="0.2" stroke-linejoin="round" d="M 0.485626,21.6231C 0.485504,21.6234 10.0085,10.5359 12.8103,12.3749C 15.6121,14.2139 19.5414,16.3364 19.5414,16.3364C 19.5414,16.3364 16.663,11.1489 12.1971,8.91623C 7.73148,6.68332 0.419922,21.7111 0.485626,21.6231 Z "/>
		<path fill="#3C1906" fill-opacity="1" stroke-width="0.2" stroke-linejoin="round" d="M 39.5,2.59073C 43.1338,1.40872 46.7676,0.226776 49.6959,-3.05176e-005C 52.6242,-0.226776 54.847,0.501617 57.0697,1.23001C 57.3228,1.21042 57.5438,1.39969 57.5634,1.6528L 57.5634,1.6528C 57.583,1.90591 57.3938,2.12692 57.1407,2.14651C 54.9345,1.44308 52.7283,0.73941 49.8001,0.966217C 46.8718,1.19302 43.2213,2.35025 39.571,3.50723C 39.3179,3.52682 39.0968,3.33755 39.0772,3.08444L 39.0772,3.08444C 39.0576,2.83133 39.2469,2.61032 39.5,2.59073 Z "/>
		<path fill="#3C1906" fill-opacity="1" stroke-width="0.2" stroke-linejoin="round" d="M 18.0275,2.88693C 14.2688,2.19852 10.5101,1.51016 7.57767,1.67471C 4.64526,1.83926 2.53897,2.85666 0.432861,3.87405C 0.179382,3.88834 -0.0145264,4.10526 -0.000305176,4.3588L -0.000305176,4.3588C 0.013916,4.61221 0.230865,4.80612 0.484314,4.7919C 2.57739,3.80142 4.67044,2.8107 7.60284,2.64615C 10.5353,2.4816 14.3072,3.14328 18.079,3.80472C 18.3324,3.7905 18.5264,3.57352 18.5121,3.32004L 18.5121,3.32004C 18.4979,3.06662 18.2809,2.87271 18.0275,2.88693 Z "/>
	</g>
</svg>
