<?xml version="1.0" encoding="utf-8"?>
<!DOCTYPE svg PUBLIC "-//W3C//DTD SVG 1.1//EN" "http://www.w3.org/Graphics/SVG/1.1/DTD/svg11.dtd">
<svg xmlns="http://www.w3.org/2000/svg" xmlns:xlink="http://www.w3.org/1999/xlink" version="1.1" baseProfile="full" width="57.5633" height="50.6834" viewBox="0 0 57.56 50.68" enable-background="new 0 0 57.56 50.68" xml:space="preserve">
	<g>
		<path fill="#3C1906" fill-opacity="1" stroke-width="0.2" stroke-linejoin="round" d="M 50.6776,18.4603C 52.3884,18.6035 53.4186,22.9778 52.9788,28.2307C 52.539,33.4836 50.7956,37.6257 49.0848,37.4825C 47.3741,37.3392 46.3438,32.9649 46.7836,27.712C 47.2234,22.459 48.9669,18.3171 50.6776,18.4603 Z "/>
		<path fill="#3C1906" fill-opacity="1" stroke-width="0.2" stroke-linejoin="round" d="M 13.1573,19.0303C 14.8681,19.1736 15.8984,23.5477 15.4586,28.8008C 15.0187,34.0537 13.2753,38.1956 11.5646,38.0525C 9.85376,37.9092 8.82349,33.5349 9.26337,28.282C 9.70313,23.029 11.4465,18.8871 13.1573,19.0303 Z "/>
		<path fill="#3C1906" fill-opacity="1" stroke-width="0.2" stroke-linejoin="round" d="M 19.7545,47.3668C 19.7543,47.367 24.2862,51.0114 29.6711,50.6833C 35.0558,50.3554 38.1098,47.5969 38.1098,47.5969C 38.1098,47.5969 38.5368,46.349 37.5516,47.1045C 36.5665,47.8596 33.4799,50.2234 29.3096,49.7312C 25.1395,49.2387 23.6844,48.5039 20.2797,46.776C 19.1799,46.2178 19.7545,47.3834 19.7545,47.3668 Z "/>
		<path fill="#3C1906" fill-opacity="1" stroke-width="0.2" stroke-linejoin="round" d="M 40.1841,20.9776C 40.1839,20.9779 47.9993,9.4631 50.8012,11.3021C 53.6031,13.1411 56.3176,16.4248 56.3176,16.4248C 56.3176,16.4248 54.6539,10.0761 50.188,7.84348C 45.7225,5.61057 40.1183,21.0655 40.1841,20.9776 Z "/>
		<path fill="#3C1906" fill-opacity="1" stroke-width="0.2" stroke-linejoin="round" d="M 0.485718,21.6229C 0.485535,21.6233 10.0085,10.5357 12.8103,12.3747C 15.6121,14.2137 19.5416,16.3362 19.5416,16.3362C 19.5416,16.3362 16.663,11.1487 12.1972,8.91605C 7.73157,6.68314 0.419922,21.7109 0.485718,21.6229 Z "/>
		<path fill="#3C1906" fill-opacity="1" stroke-width="0.2" stroke-linejoin="round" d="M 39.5001,2.59067C 43.1339,1.40872 46.7676,0.226776 49.6959,-3.05176e-005C 52.6242,-0.226776 54.847,0.501556 57.0696,1.23001C 57.3228,1.21042 57.5439,1.39969 57.5635,1.6528L 57.5635,1.6528C 57.5831,1.90585 57.3939,2.12692 57.1407,2.14651C 54.9345,1.44308 52.7283,0.739349 49.8001,0.966156C 46.8719,1.19296 43.2214,2.35019 39.571,3.50717C 39.3179,3.52682 39.0969,3.33749 39.0772,3.08444L 39.0772,3.08444C 39.0577,2.83133 39.2469,2.61032 39.5001,2.59067 Z "/>
		<path fill="#3C1906" fill-opacity="1" stroke-width="0.2" stroke-linejoin="round" d="M 18.0275,2.88675C 14.2688,2.19833 10.5101,1.50998 7.57764,1.67453C 4.64526,1.83908 2.539,2.85648 0.432861,3.87387C 0.179382,3.88815 -0.0144653,4.10507 -0.000305176,4.35861L -0.000305176,4.35861C 0.013916,4.61203 0.230896,4.80594 0.484375,4.79172C 2.57739,3.80124 4.67041,2.81052 7.60291,2.64597C 10.5353,2.48141 14.3073,3.1431 18.079,3.80453C 18.3325,3.79031 18.5264,3.57333 18.5121,3.31985L 18.5121,3.31985C 18.4979,3.06644 18.2809,2.87253 18.0275,2.88675 Z "/>
	</g>
</svg>
