<?xml version="1.0" encoding="utf-8"?>
<!DOCTYPE svg PUBLIC "-//W3C//DTD SVG 1.1//EN" "http://www.w3.org/Graphics/SVG/1.1/DTD/svg11.dtd">
<svg xmlns="http://www.w3.org/2000/svg" xmlns:xlink="http://www.w3.org/1999/xlink" version="1.1" baseProfile="full" width="170" height="146.725" viewBox="0 0 170.00 146.72" enable-background="new 0 0 170.00 146.72" xml:space="preserve">
	<path fill="#C0B8C7" fill-opacity="1" stroke-width="0.640004" stroke-linejoin="round" stroke="#000000" stroke-opacity="1" d="M 7.81555,64.6604C 7.81543,64.6606 -1.17688,104.641 1.49585,128.696C 0.493286,126.357 18.6176,104.046 18.6176,104.046C 18.6176,104.046 11.6018,108.723 13.4949,118.635C 15.3877,128.547 29.9779,145.818 29.9779,145.818C 29.9777,145.819 28.0286,113.568 31.7034,109.559C 35.3779,105.55 32.3423,131.129 45.6798,136.259C 58.3475,141.131 87.3585,138.903 111.302,131.442C 135.245,123.981 147.524,133.252 147.524,133.252C 147.524,133.252 156.656,127.349 144.851,113.763C 145.185,113.874 155.765,115.841 166.345,112.408C 176.924,108.974 155.431,85.9214 148.86,67.7688C 149.083,67.8801 158.688,75.5642 166.122,73.8103C 173.556,72.0564 147.023,36.5861 135.246,36.6697C 135.162,36.5861 142.819,26.6188 149.417,26.4519C 149.584,26.4519 107.405,0.364258 78.5052,15.3987C 78.5052,15.3151 84.1014,10.9159 86.4399,3.7887C 88.7782,-3.33838 48.0746,1.81165 32.3717,29.5421C 32.5944,29.208 5.30994,40.3446 2.97107,58.8314C 23.267,44.6045 12.0474,53.0227 7.81555,64.6604 Z "/>
</svg>
