<?xml version="1.0" encoding="utf-8"?>
<!DOCTYPE svg PUBLIC "-//W3C//DTD SVG 1.1//EN" "http://www.w3.org/Graphics/SVG/1.1/DTD/svg11.dtd">
<svg xmlns="http://www.w3.org/2000/svg" xmlns:xlink="http://www.w3.org/1999/xlink" version="1.1" baseProfile="full" width="169.269" height="146.601" viewBox="0 0 169.27 146.60" enable-background="new 0 0 169.27 146.60" xml:space="preserve">
	<path fill="#E7DFDD" fill-opacity="1" stroke-width="0.640004" stroke-linejoin="round" stroke="#000000" stroke-opacity="1" d="M 7.49237,64.6236C 7.49219,64.6237 -1.47449,104.49 1.19061,128.477C 0.190857,126.145 18.2636,103.897 18.2636,103.897C 18.2636,103.897 11.2678,108.561 13.1555,118.445C 15.0429,128.329 29.5916,145.551 29.5916,145.551C 29.5914,145.551 27.6478,113.392 31.3121,109.394C 34.9763,105.397 31.9492,130.903 45.2488,136.018C 57.8805,140.876 86.8089,138.655 110.684,131.215C 134.559,123.775 146.803,133.02 146.803,133.02C 146.803,133.02 155.909,127.134 144.138,113.586C 144.471,113.697 155.021,115.659 165.57,112.235C 176.12,108.811 154.688,85.8241 148.136,67.7231C 148.358,67.8341 157.936,75.4964 165.348,73.7475C 172.761,71.9985 146.303,36.6291 134.56,36.7125C 134.477,36.6291 142.112,26.6901 148.691,26.5238C 148.858,26.5238 106.798,0.510334 77.9807,15.502C 77.9807,15.4187 83.5611,11.0321 85.8929,3.92513C 88.2245,-3.1818 47.6367,1.95369 31.9786,29.6052C 32.2005,29.2721 4.99384,40.377 2.66156,58.8111C 22.8997,44.6247 11.7121,53.0189 7.49237,64.6236 Z "/>
</svg>
