<?xml version="1.0" encoding="utf-8"?>
<!DOCTYPE svg PUBLIC "-//W3C//DTD SVG 1.1//EN" "http://www.w3.org/Graphics/SVG/1.1/DTD/svg11.dtd">
<svg xmlns="http://www.w3.org/2000/svg" xmlns:xlink="http://www.w3.org/1999/xlink" version="1.1" baseProfile="full" width="131.61" height="107.845" viewBox="0 0 131.61 107.84" enable-background="new 0 0 131.61 107.84" xml:space="preserve">
	<g>
		<path fill="#E7DFDD" fill-opacity="1" stroke-width="0.2" stroke-linejoin="round" d="M 53.9428,1.70699C 67.9266,-2.20756 104.195,0.929527 115.853,5.17721C 127.511,9.42513 100.57,24.236 107.153,33.8171C 109.222,36.8282 139.965,70.6406 129.471,77.6368C 107.899,84.7995 95.0105,70.4104 81.629,69.0918C 76.4653,68.7863 64.9261,64.4509 63.7877,67.7546C 62.6497,71.0583 52.4706,71.7607 32.8564,69.0915C 27.3182,77.5407 24.1876,77.6717 24.1876,77.6717C 24.1876,77.6717 21.7361,80.5616 8.94006,79.316C 3.02667,75.7346 0.0284424,75.6513 0.0284424,75.6513C 0.0283203,75.6516 -1.38708,37.8813 10.9392,30.1079"/>
		<path fill="#E7DFDD" fill-opacity="1" stroke-width="0.640004" stroke-linejoin="round" d="M 61.3824,29.1494C 61.3824,29.1494 78.2068,40.8642 99.1949,36.8667C 88.1595,27.0803 91.6445,26.8592 93.8099,26.8877C 96.7793,26.9267 109.301,27.2208 119.24,6.23251"/>
		<path fill="#000000" fill-opacity="0.501961" stroke-width="0.2" stroke-linecap="round" stroke-linejoin="round" d="M 60.3435,30.3034C 59.5874,29.5153 62.4525,29.1836 63.5091,29.4594C 66.7642,30.309 69.727,32.0351 72.8862,33.1914C 81.1105,36.2009 90.3561,37.2318 99.0164,35.9293L 98.5618,37.5807C 96.7715,35.901 94.967,34.2234 93.3558,32.3713C 91.9994,30.8122 91.7527,26.2046 93.8191,26.189C 104.578,26.2755 114.235,15.7609 119.159,6.1943L 119.385,5.73922L 119.176,6.20211C 114.488,16.1938 104.835,27.1574 93.8023,27.4741C 90.2766,27.6229 97.111,33.8984 99.7704,36.2177C 100.018,36.4371 100.119,36.7782 100.031,37.0968C 99.9432,37.4155 99.6821,37.6566 99.3573,37.7185C 86.3476,40.163 70.5242,38.7639 60.3435,30.3034 Z "/>
		<path fill="#E7DFDD" fill-opacity="1" stroke-width="0.640004" stroke-linejoin="round" d="M 100.194,48.7765C 100.194,48.7765 121.96,59.6591 128.54,72.4022C 135.119,85.1452 74.3199,74.3178 66.4907,69.5705C 66.4907,69.6538 78.9006,75.8169 76.152,82.7298C 73.4035,89.6427 41.2828,78.6765 27.3737,63.9349C 27.2903,63.9349 44.3366,72.1519 38.895,107.466C 38.7838,107.245 11.1328,103.08 10.0221,75.3178"/>
		<path fill="#000000" fill-opacity="0.501961" stroke-width="0.2" stroke-linecap="round" stroke-linejoin="round" d="M 98.9781,49.8908C 98.7275,49.7479 98.4753,49.6077 98.2262,49.462C 97.9951,49.3269 97.7651,49.1899 97.5378,49.0485C 95.4149,47.7282 95.6591,48.1715 96.0797,47.8559C 99.6745,45.1587 104.83,50.2447 108.772,52.4036C 117.124,56.978 125.142,63.445 129.781,71.7612C 130.809,74.0832 128.775,77.7592 126.37,78.5733C 120.712,80.488 114.42,79.8496 108.467,79.352C 94.0383,78.1463 78.7452,77.2391 65.949,70.4638C 65.4695,70.1731 65.3049,69.5553 65.5767,69.0645C 65.8483,68.5741 66.4595,68.3852 66.9604,68.6374C 72.0313,71.5918 78.9038,77.5175 77.0305,83.0793C 74.1837,88.9128 63.6969,85.0171 57.5574,82.9091C 46.266,79.0322 35.2632,72.9021 26.9142,64.3685C 26.7051,64.1469 26.6841,63.807 26.8642,63.5612C 27.0447,63.3151 27.3744,63.2334 27.649,63.3664C 40.6339,71.302 41.4153,92.458 38.574,107.627C 24.2971,105.817 10.6499,89.6948 9.9328,75.3215L 9.87976,73.7718L 9.95142,75.3208C 10.4164,82.8588 13.2435,90.8432 18.4321,96.3311C 23.796,102.004 31.6148,105.117 39.0908,107.368L 38.6782,107.433C 40.6164,92.7088 39.872,72.0583 27.1497,64.3973L 27.7473,63.5822C 35.5892,71.4104 45.7753,77.0131 56.1981,80.7734C 60.0283,82.1551 63.9821,83.3363 68.0227,83.8386C 70.4936,84.1456 74.295,84.6661 75.3552,82.4132C 76.9119,77.6041 70.4392,72.9521 66.0554,70.4354L 66.9926,68.7426C 77.9274,74.3397 90.8324,75.0868 103.051,76.3484C 106.656,76.7205 110.276,76.9956 113.899,77.0839C 115.856,77.1318 117.818,77.0954 119.771,76.9658C 121.093,76.8779 122.412,76.7077 123.714,76.4631C 125.338,76.1584 127.989,74.5437 127.3,73.0426C 121.306,62.4239 109.643,55.8016 98.9781,49.8908 Z "/>
	</g>
</svg>
