<?xml version="1.0" encoding="utf-8"?>
<!DOCTYPE svg PUBLIC "-//W3C//DTD SVG 1.1//EN" "http://www.w3.org/Graphics/SVG/1.1/DTD/svg11.dtd">
<svg xmlns="http://www.w3.org/2000/svg" xmlns:xlink="http://www.w3.org/1999/xlink" version="1.1" baseProfile="full" width="150.768" height="182.983" viewBox="0 0 150.77 182.98" enable-background="new 0 0 150.77 182.98" xml:space="preserve">
	<path fill="#E7DFDD" fill-opacity="1" stroke-width="0.960002" stroke-linejoin="round" stroke="#3D1A06" stroke-opacity="1" d="M 149.193,117.545C 149.193,117.545 136.017,112.429 131.922,89.5673C 127.827,66.7059 135.334,36.6783 119.979,22.6886C 104.624,8.69904 88.8697,-2.22076 56.3126,2.21545C 23.7556,6.65143 0.894226,24.3946 1.57646,60.2227C 2.25887,96.0506 22.0498,138.843 12.4955,161.223C 11.5212,165.488 9.24715,171.289 5.03849,173.734C 0.830009,176.18 25.9665,172.426 25.9665,172.426C 25.9665,172.426 19.8104,175.881 18.9573,178.526C 18.1042,181.17 42.3737,178.696 46.5534,175.924C 46.5107,176.009 49.1127,185.634 67.254,174.09C 67.0267,174.147 85.4528,186.288 93.9261,177.815C 95.8026,173.208 95.4617,170.762 94.0398,168.09C 92.6181,165.417 99.7268,178.508 113.148,181.056C 126.57,183.604 130.892,176.506 131.46,175.653C 132.029,174.8 116.731,171.672 115.082,160.412C 113.433,149.152 116.049,143.693 116.049,143.693C 116.049,143.693 135.811,143.636 135.868,115.826C 135.981,115.656 150.33,117.659 149.193,117.545 Z "/>
</svg>
