<?xml version="1.0" encoding="utf-8"?>
<!DOCTYPE svg PUBLIC "-//W3C//DTD SVG 1.1//EN" "http://www.w3.org/Graphics/SVG/1.1/DTD/svg11.dtd">
<svg xmlns="http://www.w3.org/2000/svg" xmlns:xlink="http://www.w3.org/1999/xlink" version="1.1" baseProfile="full" width="132.419" height="130.708" viewBox="0 0 132.42 130.71" enable-background="new 0 0 132.42 130.71" xml:space="preserve">
	<g>
		<path fill="#E7DFDD" fill-opacity="1" stroke-width="0.2" stroke-linejoin="round" d="M 0.000511169,56.642C 0.000335693,56.6422 11.8295,-1.82048 53.4581,-0.000411987C 95.0866,1.81966 113.057,46.1781 113.057,46.1781L 120.849,87.9205L 61.7327,53.4574L 43.2795,26.7C 43.2794,26.7001 33.7253,49.9881 30.3407,68.812C 26.9867,87.4652 16.5213,81.6077 16.5213,81.6077L 0.000511169,56.642 Z "/>
		<path fill="#E7DFDD" fill-opacity="1" stroke-width="0.319997" stroke-linejoin="round" d="M 12.2141,44.1756C 12.2141,44.1756 -3.99367,110.713 41.9001,129.48C 41.8998,129.481 27.057,98.4293 32.8577,72.3263"/>
		<path fill="#000000" fill-opacity="0.501961" stroke-width="0.2" stroke-linecap="round" stroke-linejoin="round" d="M 11.628,43.8968C 14.6306,42.2024 11.6422,50.8124 11.1943,54.2309C 10.2411,61.5057 9.90808,68.898 10.31,76.2238C 11.4336,96.6985 23.3671,120.641 42.1552,128.856L 41.2918,129.771C 33.3646,112.113 28.7984,91.2514 32.8401,72.3225L 32.9864,71.7105L 32.8599,72.3268C 29.355,91.7771 34.8525,112.795 43.2014,130.708L 41.6563,130.076C 31.7098,125.791 22.4643,118.087 17.3059,108.564C 7.01861,89.5719 5.76851,64.8241 11.628,43.8968 Z "/>
		<path fill="#E7DFDD" fill-opacity="1" stroke-width="0.319997" stroke-linejoin="round" d="M 40.1937,33.2565C 40.1937,33.2565 23.4272,80.0425 45.8857,98.2979C 45.8855,97.9568 24.3269,91.6438 23.3032,71.3416"/>
		<path fill="#000000" fill-opacity="0.501961" stroke-width="0.2" stroke-linecap="round" stroke-linejoin="round" d="M 39.6402,32.9177C 41.8372,31.9666 39.5073,37.7498 38.8754,40.0587C 37.6289,44.6127 36.6745,49.253 35.9621,53.9205C 33.6957,68.7706 34.9352,87.9642 46.3036,97.7838L 45.223,98.2982C 46.2673,98.2945 43.1762,97.816 42.2291,97.3761C 39.5435,96.1284 37.0128,94.5257 34.6525,92.7374C 28.2157,87.8604 23.7645,79.4039 23.2853,71.3424L 23.2738,70.9169L 23.3054,71.3414C 24.0203,78.0051 27.2825,84.8239 32.2076,89.3692C 34.348,91.3446 36.7847,93.004 39.2997,94.4732C 40.4188,95.127 41.5861,95.6971 42.761,96.2438C 43.2156,96.4554 43.6755,96.6553 44.1359,96.8538C 47.4416,98.2791 47.5639,97.0977 46.3838,97.9027C 46.0538,98.1278 45.2197,97.8955 45.2512,98.2936C 45.2994,98.9058 46.0969,99.1842 46.5198,99.6295L 45.4861,98.7893C 28.7069,84.5557 31.8235,53.6417 39.6402,32.9177 Z "/>
		<path fill="#E7DFDD" fill-opacity="1" stroke-width="0.319997" stroke-linejoin="round" d="M 118.39,74.9261C 118.39,74.9261 130.048,114.905 102.94,129.121C 103.395,128.553 101.821,98.4401 91.1292,80.4694"/>
		<path fill="#000000" fill-opacity="0.501961" stroke-width="0.2" stroke-linecap="round" stroke-linejoin="round" d="M 117.743,74.9769C 118.777,73.2289 119.958,78.4956 120.335,80.4913C 121.205,85.1026 121.575,89.8202 121.596,94.513C 121.653,107.749 114.865,123.365 103.264,129.738L 102.396,128.686C 101.629,130.103 102.239,125.467 102.107,123.861C 101.765,119.699 101.246,115.551 100.605,111.425C 98.9511,100.763 96.2277,89.9794 91.1138,80.4786L 90.8943,80.0899L 91.1312,80.4682C 96.701,89.7799 99.9723,100.527 101.797,111.222C 102.828,117.265 105.627,123.803 103.46,129.537L 102.631,128.532C 118.814,119.563 121.63,93.2193 117.743,74.9769 Z "/>
		<path fill="#E7DFDD" fill-opacity="1" stroke-width="0.319997" stroke-linejoin="round" stroke="#000000" stroke-opacity="0.501961" d="M 70.3635,46.075C 70.3635,46.075 116.883,102.891 91.2911,127.29C 91.6323,126.779 109.43,117.021 109.942,102.86"/>
		<path fill="#E7DFDD" fill-opacity="1" stroke-width="0.319997" stroke-linejoin="round" d="M 36.0995,20.3865C 36.0995,20.3865 62.6579,86.6976 132.096,99.0668C 121.448,92.47 116.898,59.4287 100.178,48.3391"/>
		<path fill="#000000" fill-opacity="0.501961" stroke-width="0.2" stroke-linecap="round" stroke-linejoin="round" d="M 35.4606,20.5C 36.1434,19.0372 37.8867,22.7384 38.6021,24.1856C 40.0948,27.2045 41.698,30.1702 43.3759,33.0902C 48.2412,41.5571 54.1146,49.4764 60.5319,56.8371C 78.6852,77.6593 105.101,93.115 132.209,98.4344L 131.758,99.6129C 115.419,87.957 116.304,60.2904 100.169,48.354L 99.5407,47.9254L 100.18,48.3372C 111.358,56.1543 116.595,70.3971 122.176,82.8431C 124.734,88.545 127.305,94.9541 132.42,98.5448L 131.988,99.6715C 91.1265,91.9806 49.9894,59.5997 35.4606,20.5 Z "/>
	</g>
</svg>
