<?xml version="1.0" encoding="utf-8"?>
<!DOCTYPE svg PUBLIC "-//W3C//DTD SVG 1.1//EN" "http://www.w3.org/Graphics/SVG/1.1/DTD/svg11.dtd">
<svg xmlns="http://www.w3.org/2000/svg" xmlns:xlink="http://www.w3.org/1999/xlink" version="1.1" baseProfile="full" width="170" height="147" viewBox="0 0 170.00 147.00" enable-background="new 0 0 170.00 147.00" xml:space="preserve">
	<g>
		<path fill="#C0B8C7" fill-opacity="1" stroke-width="0.2" stroke-linejoin="round" d="M 84.1421,34.4914C 98.126,30.5769 134.394,33.7139 146.052,37.9618C 157.71,42.2096 130.769,57.0205 137.352,66.6016C 139.421,69.6126 170.164,103.425 159.67,110.421C 138.099,117.584 125.21,103.195 111.828,101.876C 106.665,101.571 95.1254,97.2353 93.9869,100.539C 92.849,103.843 82.6699,104.545 63.0557,101.876C 57.5175,110.325 54.3868,110.456 54.3868,110.456C 54.3868,110.456 51.9354,113.346 39.1394,112.1C 33.226,108.519 30.2278,108.436 30.2278,108.436C 30.2277,108.436 28.8121,70.6658 41.1385,62.8924"/>
		<path fill="#D2B6EA" fill-opacity="1" stroke-width="0.640004" stroke-linejoin="round" d="M 91.5817,61.9337C 91.5817,61.9337 108.406,73.6486 129.394,69.651C 118.359,59.8647 121.844,59.6436 124.009,59.6721C 126.979,59.711 139.501,60.0052 149.439,39.0169"/>
		<path fill="#000000" fill-opacity="0.501961" stroke-width="0.2" stroke-linecap="round" stroke-linejoin="round" d="M 90.5428,63.0877C 89.7867,62.2996 92.6517,61.9679 93.7085,62.2437C 96.9635,63.0933 99.9263,64.8195 103.085,65.9757C 111.31,68.9852 120.555,70.0162 129.216,68.7137L 128.761,70.3651C 126.971,68.6854 125.166,67.0078 123.555,65.1557C 122.199,63.5966 121.952,58.9888 124.018,58.9735C 134.778,59.0599 144.434,48.5452 149.359,38.9786L 149.584,38.5236L 149.375,38.9865C 144.687,48.9782 135.034,59.9419 124.002,60.2585C 120.476,60.4073 127.31,66.6828 129.97,69.0022C 130.217,69.2215 130.318,69.5626 130.23,69.8812C 130.143,70.1998 129.881,70.441 129.557,70.5028C 116.547,72.9475 100.724,71.5483 90.5428,63.0877 Z "/>
		<path fill="#D2B6EA" fill-opacity="1" stroke-width="0.640004" stroke-linejoin="round" d="M 130.394,81.5609C 130.394,81.5609 152.159,92.4436 158.739,105.187C 165.318,117.93 104.519,107.102 96.6901,102.355C 96.6901,102.438 109.1,108.601 106.351,115.514C 103.603,122.427 71.4821,111.461 57.5731,96.7193C 57.4897,96.7193 74.536,104.936 69.0942,140.251C 68.983,140.029 41.3322,135.864 40.2214,108.102"/>
		<path fill="#000000" fill-opacity="0.501961" stroke-width="0.2" stroke-linecap="round" stroke-linejoin="round" d="M 129.177,82.6752C 128.927,82.5323 128.675,82.3922 128.426,82.2464C 128.194,82.1112 127.964,81.9742 127.737,81.833C 125.614,80.5125 125.858,80.9559 126.279,80.6403C 129.874,77.9431 135.03,83.0291 138.972,85.1881C 147.323,89.7624 155.342,96.2293 159.98,104.545C 161.008,106.868 158.975,110.544 156.569,111.358C 150.911,113.272 144.619,112.634 138.667,112.136C 124.238,110.931 108.944,110.024 96.1483,103.248C 95.6688,102.957 95.5043,102.34 95.776,101.849C 96.0477,101.358 96.6588,101.17 97.1597,101.422C 102.231,104.376 109.103,110.302 107.23,115.864C 104.383,121.697 93.8961,117.801 87.7568,115.693C 76.4653,111.816 65.4625,105.686 57.1134,97.1529C 56.9044,96.9312 56.8834,96.5914 57.0635,96.3457C 57.244,96.0996 57.5737,96.0178 57.8485,96.1507C 70.8331,104.086 71.6146,125.242 68.7734,140.412C 54.4965,138.601 40.8492,122.479 40.1322,108.106L 40.0791,106.556L 40.1508,108.105C 40.6157,115.643 43.4427,123.628 48.6315,129.115C 53.9952,134.789 61.8141,137.902 69.2902,140.152L 68.8776,140.217C 70.8158,125.493 70.0713,104.843 57.349,97.1817L 57.9467,96.3667C 65.7886,104.195 75.9746,109.798 86.3975,113.558C 90.2277,114.939 94.1813,116.121 98.222,116.623C 100.693,116.93 104.494,117.45 105.555,115.198C 107.111,110.389 100.639,105.736 96.2548,103.22L 97.1919,101.527C 108.127,107.124 121.032,107.871 133.251,109.133C 136.856,109.505 140.475,109.78 144.098,109.868C 146.056,109.916 148.017,109.88 149.971,109.75C 151.293,109.662 152.611,109.492 153.913,109.248C 155.537,108.943 158.188,107.328 157.499,105.827C 151.505,95.2083 139.842,88.586 129.177,82.6752 Z "/>
	</g>
</svg>
