<?xml version="1.0" encoding="utf-8"?>
<!DOCTYPE svg PUBLIC "-//W3C//DTD SVG 1.1//EN" "http://www.w3.org/Graphics/SVG/1.1/DTD/svg11.dtd">
<svg xmlns="http://www.w3.org/2000/svg" xmlns:xlink="http://www.w3.org/1999/xlink" version="1.1" baseProfile="full" width="109.829" height="108.271" viewBox="0 0 109.83 108.27" enable-background="new 0 0 109.83 108.27" xml:space="preserve">
	<g>
		<path fill="#FFFFFF" fill-opacity="1" stroke-width="0.640004" stroke-linejoin="round" stroke="#000000" stroke-opacity="1" d="M 108.778,30.1203C 108.778,30.1206 108.491,80.2992 103.918,92.7718C 100.556,101.943 76.0732,107.22 74.7596,107.22C 73.4462,107.22 58.2101,106.169 58.2101,106.169C 58.2101,106.169 42.8429,105.512 22.4844,87.1239C 22.7471,87.2555 13.8159,62.2991 17.4934,35.3742C 21.1708,8.44949 32.3355,2.27615 66.1347,1.05038C 99.9341,-0.175629 108.865,30.1211 108.778,30.1203 Z "/>
		<path fill="#FFFFFF" fill-opacity="1" stroke-width="0.640004" stroke-linejoin="round" stroke="#000000" stroke-opacity="1" d="M 22.6685,82.548C 22.6685,82.548 17.8084,90.4933 12.7296,83.9701C 7.65088,77.4471 3.53546,74.6012 2.1781,70.9236C 0.820923,67.2459 -2.57196,45.5523 11.4817,53.1705L 18.9908,60.1319"/>
	</g>
</svg>
