<?xml version="1.0" encoding="utf-8"?>
<!DOCTYPE svg PUBLIC "-//W3C//DTD SVG 1.1//EN" "http://www.w3.org/Graphics/SVG/1.1/DTD/svg11.dtd">
<svg xmlns="http://www.w3.org/2000/svg" xmlns:xlink="http://www.w3.org/1999/xlink" version="1.1" baseProfile="full" width="109.829" height="108.271" viewBox="0 0 109.83 108.27" enable-background="new 0 0 109.83 108.27" xml:space="preserve">
	<g>
		<path fill="#FFFFFF" fill-opacity="1" stroke-width="0.640004" stroke-linejoin="round" stroke="#000000" stroke-opacity="1" d="M 108.778,30.1204C 108.778,30.1208 108.491,80.2993 103.918,92.7719C 100.556,101.943 76.0732,107.22 74.7596,107.22C 73.4463,107.22 58.2102,106.169 58.2102,106.169C 58.2102,106.169 42.843,105.512 22.4845,87.1241C 22.7471,87.2556 13.8159,62.2993 17.4934,35.3743C 21.1708,8.44965 32.3356,2.27631 66.1348,1.05054C 99.9342,-0.175476 108.865,30.1213 108.778,30.1204 Z "/>
		<path fill="#FFFFFF" fill-opacity="1" stroke-width="0.640004" stroke-linejoin="round" stroke="#000000" stroke-opacity="1" d="M 22.6685,82.5482C 22.6685,82.5482 17.8085,90.4935 12.7297,83.9703C 7.65085,77.4472 3.53552,74.6013 2.17816,70.9238C 0.820953,67.246 -2.57196,45.5525 11.4818,53.1707L 18.9909,60.1321"/>
	</g>
</svg>
