<?xml version="1.0" encoding="utf-8"?>
<!DOCTYPE svg PUBLIC "-//W3C//DTD SVG 1.1//EN" "http://www.w3.org/Graphics/SVG/1.1/DTD/svg11.dtd">
<svg xmlns="http://www.w3.org/2000/svg" xmlns:xlink="http://www.w3.org/1999/xlink" version="1.1" baseProfile="full" width="22.1947" height="34.4198" viewBox="0 0 22.19 34.42" enable-background="new 0 0 22.19 34.42" xml:space="preserve">
	<path fill="#FFFFFF" fill-opacity="1" stroke-width="0.319997" stroke-linejoin="round" stroke="#000000" stroke-opacity="1" d="M 0.430817,-1.23792L 0.430817,-1.33093L -23.9967,-1.33093C -24.041,-0.503845 -24.114,0.251526 -24.2219,0.926331C -25.7979,10.7768 -24.4631,28.0714 -24.5503,31.661C -24.6377,35.2509 -16.1883,34.201 -10.6717,34.1127C -5.15515,34.0248 -9.40198,28.8589 -9.40198,28.8589C -9.40198,28.8589 -14.5903,29.1224 -10.7373,22.7299C -7.12418,16.7357 -0.393158,0.731506 0.430817,-1.23792 Z "/>
	<path fill="#FFFFFF" fill-opacity="1" stroke-width="0.319997" stroke-linejoin="round" stroke="#000000" stroke-opacity="1" d="M 21.2668,31.2014C 22.1864,26.8668 17.8737,24.3055 17.8737,24.3055C 17.8737,24.3055 19.9716,12.2861 21.6695,-1.33093L 0.525604,-1.33093L 2.0415,12.9459L 3.0098,32.3836L 14.3711,33.2374C 16.6042,33.3685 20.3473,35.5357 21.2668,31.2014 Z "/>
	<rect x="0.927765" y="-5.53937" fill="#FFFFFF" fill-opacity="1" stroke-width="0.2" stroke-linejoin="round" width="20.0247" height="5.53955"/>
</svg>
