<?xml version="1.0" encoding="utf-8"?>
<!DOCTYPE svg PUBLIC "-//W3C//DTD SVG 1.1//EN" "http://www.w3.org/Graphics/SVG/1.1/DTD/svg11.dtd">
<svg xmlns="http://www.w3.org/2000/svg" xmlns:xlink="http://www.w3.org/1999/xlink" version="1.1" baseProfile="full" width="22.1947" height="34.4198" viewBox="0 0 22.19 34.42" enable-background="new 0 0 22.19 34.42" xml:space="preserve">
	<path fill="#FFFFFF" fill-opacity="1" stroke-width="0.319997" stroke-linejoin="round" stroke="#000000" stroke-opacity="1" d="M 0.430786,-1.23773L 0.430786,-1.33075L -23.9966,-1.33075C -24.041,-0.503723 -24.114,0.251648 -24.2219,0.926453C -25.7979,10.777 -24.4631,28.0716 -24.5504,31.6612C -24.6377,35.251 -16.1883,34.2011 -10.6716,34.1129C -5.15515,34.025 -9.40192,28.8591 -9.40192,28.8591C -9.40192,28.8591 -14.5903,29.1226 -10.7373,22.7301C -7.12421,16.7358 -0.393188,0.731628 0.430786,-1.23773 Z "/>
	<path fill="#FFFFFF" fill-opacity="1" stroke-width="0.319997" stroke-linejoin="round" stroke="#000000" stroke-opacity="1" d="M 21.2667,31.2015C 22.1864,26.867 17.8737,24.3056 17.8737,24.3056C 17.8737,24.3056 19.9716,12.2863 21.6694,-1.33075L 0.525513,-1.33075L 2.0415,12.9461L 3.00977,32.3837L 14.3711,33.2375C 16.6041,33.3687 20.3473,35.5358 21.2667,31.2015 Z "/>
	<rect x="0.927856" y="-5.53937" fill="#FFFFFF" fill-opacity="1" stroke-width="0.2" stroke-linejoin="round" width="20.0245" height="5.53955"/>
</svg>
