<?xml version="1.0" encoding="utf-8"?>
<!DOCTYPE svg PUBLIC "-//W3C//DTD SVG 1.1//EN" "http://www.w3.org/Graphics/SVG/1.1/DTD/svg11.dtd">
<svg xmlns="http://www.w3.org/2000/svg" xmlns:xlink="http://www.w3.org/1999/xlink" version="1.1" baseProfile="full" width="26.4259" height="34.7918" viewBox="0 0 26.43 34.79" enable-background="new 0 0 26.43 34.79" xml:space="preserve">
	<path fill="#FFFFFF" fill-opacity="1" stroke-width="0.319997" stroke-linejoin="round" stroke="#000000" stroke-opacity="1" d="M 25.9007,-1.23816L 25.9007,-1.33118L 1.47321,-1.33118C 1.42886,-0.504089 1.3559,0.251282 1.24796,0.926086C -0.327972,10.7766 1.00677,28.0712 0.919556,31.6608C 0.832153,35.2506 9.28156,34.2007 14.7982,34.1125C 20.3147,34.0246 16.0679,28.8587 16.0679,28.8587C 16.0679,28.8587 10.8795,29.1222 14.7326,22.7297C 18.3457,16.7354 25.0767,0.731262 25.9007,-1.23816 Z "/>
	<path fill="#FFFFFF" fill-opacity="1" stroke-width="0.319997" stroke-linejoin="round" stroke="#000000" stroke-opacity="1" d="M 46.7366,31.2011C 47.6563,26.8666 43.3436,24.3052 43.3436,24.3052C 43.3436,24.3052 45.4414,12.2858 47.1393,-1.33118L 25.9955,-1.33118L 27.5114,12.9457L 28.4797,32.3834L 39.841,33.2371C 42.074,33.3683 45.8171,35.5355 46.7366,31.2011 Z "/>
</svg>
