<?xml version="1.0" encoding="utf-8"?>
<!DOCTYPE svg PUBLIC "-//W3C//DTD SVG 1.1//EN" "http://www.w3.org/Graphics/SVG/1.1/DTD/svg11.dtd">
<svg xmlns="http://www.w3.org/2000/svg" xmlns:xlink="http://www.w3.org/1999/xlink" version="1.1" baseProfile="full" width="26.4259" height="34.7918" viewBox="0 0 26.43 34.79" enable-background="new 0 0 26.43 34.79" xml:space="preserve">
	<path fill="#FFFFFF" fill-opacity="1" stroke-width="0.319997" stroke-linejoin="round" stroke="#000000" stroke-opacity="1" d="M 25.9007,-1.23798L 25.9007,-1.33099L 1.47327,-1.33099C 1.42889,-0.503967 1.35596,0.251404 1.24799,0.926208C -0.327942,10.7767 1.00677,28.0714 0.919556,31.6609C 0.832214,35.2508 9.28162,34.2009 14.7983,34.1127C 20.3148,34.0248 16.068,28.8588 16.068,28.8588C 16.068,28.8588 10.8796,29.1224 14.7326,22.7299C 18.3457,16.7355 25.0767,0.731384 25.9007,-1.23798 Z "/>
	<path fill="#FFFFFF" fill-opacity="1" stroke-width="0.319997" stroke-linejoin="round" stroke="#000000" stroke-opacity="1" d="M 46.7366,31.2013C 47.6563,26.8668 43.3436,24.3054 43.3436,24.3054C 43.3436,24.3054 45.4415,12.286 47.1393,-1.33099L 25.9954,-1.33099L 27.5114,12.9459L 28.4797,32.3835L 39.841,33.2372C 42.074,33.3685 45.8172,35.5356 46.7366,31.2013 Z "/>
</svg>
